<svg width="35" height="35" viewBox="0 0 35 35" fill="none" xmlns="http://www.w3.org/2000/svg">
<rect width="35" height="35" rx="17.5" fill="white" fill-opacity="0.1"/>
<path d="M12.8064 14.8864H9.53296V25.3626H12.8064V14.8864Z" fill="#7572D5"/>
<path d="M11.1008 9.94019C9.89376 9.94019 9.10001 10.7208 9.10001 11.7573C9.10001 12.7741 9.86752 13.5744 11.0549 13.5744H11.0811C12.3144 13.5744 13.0819 12.7675 13.0753 11.7573C13.0491 10.7208 12.3078 9.94019 11.1008 9.94019Z" fill="#7572D5"/>
<path d="M21.7476 14.788C19.8714 14.788 18.6972 15.8113 18.4807 16.5329V14.8864H14.8006C14.8465 15.7588 14.8006 25.3626 14.8006 25.3626H18.4807V19.7014C18.4807 19.3799 18.4676 19.065 18.5594 18.842C18.8087 18.2123 19.3532 17.5563 20.3306 17.5563C21.6098 17.5563 22.1871 18.5271 22.1871 19.9441V25.3626H25.9V19.5374C25.9 16.2968 24.0764 14.788 21.7476 14.788Z" fill="#7572D5"/>
</svg>
