<svg width="46" height="42" viewBox="0 0 46 42" fill="none" xmlns="http://www.w3.org/2000/svg">
<path d="M45.8125 21C45.8125 18.0833 42.6875 15.375 37.4792 13.5L36.5417 13.1875V12.7708C37.6875 7.04164 36.8542 2.7708 34.25 1.2083C31.6458 -0.354197 27.7917 1.10414 23.625 4.74997L23 5.37497L22.7917 5.16664H22.5833C18.3125 1.2083 14.1458 -0.145864 11.5417 1.31247C8.9375 2.7708 8.20833 6.8333 9.25 12.1458C9.35958 12.4838 9.4295 12.8333 9.45833 13.1875L8.3125 13.6041C3.20833 15.375 0.1875 18.0833 0.1875 21C0.1875 23.9166 3.52083 26.8333 8.72917 28.7083L9.45833 28.9166C9.32964 29.2854 9.25935 29.672 9.25 30.0625C8.20833 35.2708 9.14583 39.2291 11.5417 40.6875C13.9375 42.1458 18.3125 40.7916 22.4792 37.1458L23.1042 36.625L23.9375 37.4583C26.8542 39.9583 29.7708 41.3125 32.0625 41.3125C32.8708 41.3309 33.6671 41.1137 34.3542 40.6875C36.9583 39.2291 37.8958 34.9583 36.75 29.5416V29.3333C36.705 29.1619 36.6702 28.988 36.6458 28.8125H36.9583C42.4792 26.8333 45.8125 24.0208 45.8125 21ZM42.7917 21C42.7917 22.25 40.5 24.4375 36.0208 25.8958H35.8125C35.2664 24.2202 34.6051 22.5843 33.8333 21C34.5625 19.3333 35.1875 17.6666 35.7083 16.1041L36.5417 16.3125C40.7083 17.7708 42.7917 19.75 42.7917 21ZM25.9167 35.1666L25.0833 34.5416C26.2761 33.2201 27.3891 31.8287 28.4167 30.375L33.7292 29.5416C33.8333 29.75 33.8333 29.9583 33.9375 30.0625C34.3087 31.9492 34.379 33.8829 34.1458 35.7916C33.9995 36.7045 33.5608 37.5452 32.8958 38.1875C31.8542 38.8125 29.0417 37.9791 25.9167 35.1666ZM24.5625 30.5833L23.1042 32.4583L21.4375 30.5833H24.5625ZM10.2917 16C10.8152 17.7174 11.4771 19.3895 12.2708 21C11.4765 22.646 10.8146 24.3528 10.2917 26.1041L9.66667 25.8958C7.84256 25.3201 6.1454 24.4008 4.66667 23.1875C4.28377 22.9455 3.95605 22.6257 3.7048 22.2488C3.45356 21.872 3.2844 21.4465 3.20833 21C3.20833 19.75 5.29167 17.7708 9.25 16.4166L10.2917 16ZM21.4375 11.4166L23 9.6458L24.5625 11.4166H21.4375ZM32.8958 3.81247C34.0417 4.43747 34.6667 7.56247 33.7292 12.1458C33.734 12.2022 33.7272 12.2591 33.7093 12.3128C33.6914 12.3665 33.6627 12.416 33.625 12.4583L28.4167 11.625C27.3891 10.1712 26.2761 8.77988 25.0833 7.4583L25.7083 6.93747C29.0417 4.0208 31.75 3.18747 32.8958 3.81247ZM15.5 14.8541L14.6667 16.2083L13.9375 17.5625C13.625 16.8333 13.4167 16.1041 13.1042 15.2708L15.5 14.8541ZM13.1042 26.7291C13.4167 26 13.625 25.2708 13.9375 24.4375L14.6667 25.7916L15.5 27.1458L13.1042 26.7291ZM30.5 21C29.9699 22.142 29.3788 23.2548 28.7292 24.3333C28.1042 25.4791 27.375 26.5208 26.75 27.5625H19.25C18.5208 26.4166 17.7917 25.375 17.2708 24.3333C16.6161 23.2577 16.0248 22.1447 15.5 21C16.0054 19.8458 16.5974 18.7315 17.2708 17.6666C17.8693 16.5874 18.5301 15.544 19.25 14.5416C21.7457 14.3334 24.2543 14.3334 26.75 14.5416C27.4792 15.5833 28.1042 16.625 28.7292 17.6666C29.4026 18.7315 29.9946 19.8458 30.5 21ZM31.3333 16.2083L30.5 14.8541L32.8958 15.375C32.6639 16.1208 32.3856 16.8514 32.0625 17.5625L31.3333 16.2083ZM30.5 27.1458L31.3333 25.7916L32.0625 24.3333L33 26.7291L30.5 27.1458ZM20.8125 7.35414H20.9167L17.5833 11.5208L12.375 12.3541C12.2708 12.0416 12.2708 11.8333 12.1667 11.5208C11.3333 7.24997 11.9583 4.3333 13 3.81247C13.2766 3.63082 13.61 3.55672 13.9375 3.60414C15.3958 3.60414 17.8958 4.6458 20.7083 7.1458L20.8125 7.35414ZM12.1667 30.5833C12.1857 30.2617 12.256 29.9452 12.375 29.6458L17.6875 30.375C18.689 31.8481 19.8034 33.2412 21.0208 34.5416L20.8125 34.75L20.6042 34.9583C19.184 36.2738 17.5211 37.2999 15.7083 37.9791C15.3107 38.1874 14.875 38.3133 14.4275 38.3491C13.98 38.3849 13.5299 38.3299 13.1042 38.1875C11.9583 37.5625 11.3333 34.75 12.1667 30.5833Z" fill="#7572D5"/>
</svg>
