<svg width="35" height="35" viewBox="0 0 35 35" fill="none" xmlns="http://www.w3.org/2000/svg">
<rect width="35" height="35" rx="17.5" fill="white" fill-opacity="0.1"/>
<path d="M25.1696 20.9941C24.8038 20.5391 24.3881 20.1314 23.9861 19.737C23.8432 19.5968 23.6954 19.4518 23.5529 19.3076C23.1439 18.8932 23.129 18.7375 23.4529 18.2668C23.6769 17.9424 23.9145 17.6175 24.1442 17.3033C24.3526 17.0183 24.568 16.7235 24.7746 16.4278L24.817 16.367C25.2117 15.801 25.6199 15.2158 25.8372 14.5099C25.8936 14.3236 25.9528 14.0495 25.8174 13.8204C25.682 13.5914 25.4195 13.5215 25.2337 13.4889C25.1418 13.4727 25.0506 13.4705 24.9659 13.4705L22.3809 13.4686L22.3595 13.4684C21.9687 13.4684 21.7053 13.6593 21.5544 14.0519C21.4103 14.4271 21.252 14.8267 21.0714 15.2065C20.7119 15.963 20.2554 16.8342 19.5948 17.5609L19.5669 17.5918C19.4889 17.6787 19.4005 17.777 19.3359 17.777C19.326 17.777 19.3152 17.7751 19.303 17.7711C19.1662 17.7159 19.0744 17.3726 19.0785 17.213C19.0786 17.2108 19.0786 17.2086 19.0786 17.2064L19.0768 14.1105C19.0768 14.0998 19.0761 14.0891 19.0747 14.0785C19.009 13.5752 18.8633 13.2619 18.3129 13.1503C18.2983 13.1472 18.2834 13.1458 18.2685 13.1458H15.5806C15.1427 13.1458 14.9014 13.3302 14.6746 13.6062C14.6133 13.68 14.4859 13.8336 14.5491 14.02C14.6132 14.2091 14.8212 14.2495 14.8889 14.2627C15.2252 14.329 15.4148 14.5421 15.4685 14.9145C15.5622 15.5612 15.5737 16.2514 15.5047 17.0868C15.4855 17.3189 15.4474 17.4982 15.3847 17.6514C15.3701 17.6872 15.3185 17.8038 15.2658 17.8039C15.2491 17.8039 15.2007 17.7971 15.1125 17.7341C14.904 17.5861 14.7514 17.3749 14.5736 17.114C13.9685 16.228 13.4607 15.2519 13.021 14.1294C12.8579 13.7161 12.5533 13.4848 12.1629 13.478C11.7339 13.4712 11.345 13.468 10.9741 13.468C10.5689 13.468 10.1931 13.4719 9.82625 13.4798C9.51217 13.4855 9.29492 13.5831 9.18061 13.77C9.06611 13.957 9.07356 14.2026 9.20276 14.5C10.237 16.8825 11.1748 18.6149 12.2434 20.1171C12.9923 21.1683 13.7433 21.8959 14.6069 22.4068C15.5166 22.9461 16.5362 23.2083 17.7237 23.2083C17.8583 23.2083 17.9975 23.2048 18.1379 23.198C18.8279 23.1632 19.0839 22.9044 19.1163 22.2082C19.1317 21.8525 19.1692 21.4793 19.338 21.1611C19.4445 20.9606 19.5439 20.9606 19.5765 20.9606C19.6394 20.9606 19.7174 20.9906 19.8011 21.0468C19.9513 21.1484 20.0801 21.2845 20.1857 21.4034C20.285 21.5163 20.3833 21.6304 20.4817 21.7446C20.6939 21.9909 20.9134 22.2456 21.1427 22.4871C21.6445 23.0162 22.1973 23.2488 22.8323 23.1983H25.2023C25.2073 23.1983 25.2124 23.1981 25.2175 23.1978C25.4536 23.1817 25.6582 23.0459 25.7786 22.8254C25.9279 22.5522 25.9249 22.2037 25.7706 21.893C25.5956 21.5415 25.3685 21.2413 25.1696 20.9941Z" fill="#7572D5"/>
</svg>
